<mxfile host="app.diagrams.net" modified="2023-10-31T07:58:38.359Z" agent="Mozilla/5.0 (Windows NT 10.0; Win64; x64) AppleWebKit/537.36 (KHTML, like Gecko) Chrome/118.0.0.0 Safari/537.36" etag="Hg8AGgyihnKRYNENhl9V" version="22.0.8" type="github">
  <diagram name="Page-1" id="2YBvvXClWsGukQMizWep">
    <mxGraphModel dx="1114" dy="578" grid="1" gridSize="10" guides="1" tooltips="1" connect="1" arrows="1" fold="1" page="1" pageScale="1" pageWidth="850" pageHeight="1100" math="0" shadow="0">
      <root>
        <mxCell id="0" />
        <mxCell id="1" parent="0" />
        <mxCell id="bPhAiL6r6EbNg2Xtk8Mm-7" value="Admin" style="shape=umlActor;verticalLabelPosition=bottom;verticalAlign=top;html=1;outlineConnect=0;" parent="1" vertex="1">
          <mxGeometry x="51" y="157" width="21" height="50" as="geometry" />
        </mxCell>
        <mxCell id="bPhAiL6r6EbNg2Xtk8Mm-9" value="" style="rounded=0;whiteSpace=wrap;html=1;fillColor=#1CFFF0;" parent="1" vertex="1">
          <mxGeometry x="56.5" y="270" width="10" height="530" as="geometry" />
        </mxCell>
        <mxCell id="bPhAiL6r6EbNg2Xtk8Mm-10" value="" style="endArrow=classic;html=1;rounded=0;" parent="1" edge="1">
          <mxGeometry width="50" height="50" relative="1" as="geometry">
            <mxPoint x="66.5" y="270" as="sourcePoint" />
            <mxPoint x="210" y="271" as="targetPoint" />
          </mxGeometry>
        </mxCell>
        <mxCell id="bPhAiL6r6EbNg2Xtk8Mm-11" value="&lt;font style=&quot;font-size: 10px;&quot;&gt;1. membuka aplikasi()&lt;/font&gt;" style="text;html=1;strokeColor=none;fillColor=none;align=left;verticalAlign=middle;whiteSpace=wrap;rounded=0;" parent="1" vertex="1">
          <mxGeometry x="74" y="289" width="120" height="30" as="geometry" />
        </mxCell>
        <mxCell id="bPhAiL6r6EbNg2Xtk8Mm-12" value="" style="endArrow=classic;html=1;rounded=0;" parent="1" edge="1">
          <mxGeometry width="50" height="50" relative="1" as="geometry">
            <mxPoint x="66.5" y="341" as="sourcePoint" />
            <mxPoint x="210" y="341" as="targetPoint" />
          </mxGeometry>
        </mxCell>
        <mxCell id="bPhAiL6r6EbNg2Xtk8Mm-13" value="&lt;font style=&quot;font-size: 10px;&quot;&gt;2. masukkan username dan password()&lt;/font&gt;" style="text;html=1;strokeColor=none;fillColor=none;align=left;verticalAlign=middle;whiteSpace=wrap;rounded=0;" parent="1" vertex="1">
          <mxGeometry x="72" y="360" width="138" height="30" as="geometry" />
        </mxCell>
        <mxCell id="bPhAiL6r6EbNg2Xtk8Mm-14" value="" style="rounded=0;whiteSpace=wrap;html=1;fillColor=#1CFFF0;" parent="1" vertex="1">
          <mxGeometry x="220" y="270" width="10" height="120" as="geometry" />
        </mxCell>
        <mxCell id="bPhAiL6r6EbNg2Xtk8Mm-16" value="" style="ellipse;whiteSpace=wrap;html=1;" parent="1" vertex="1">
          <mxGeometry x="201" y="149" width="50" height="60" as="geometry" />
        </mxCell>
        <mxCell id="bPhAiL6r6EbNg2Xtk8Mm-18" value="&lt;font style=&quot;font-size: 21px;&quot;&gt;&lt;b&gt;Sistem Informasi Kearsipan Tata Usaha Berbasis Website&lt;/b&gt;&lt;/font&gt;" style="text;html=1;strokeColor=none;fillColor=none;align=center;verticalAlign=middle;whiteSpace=wrap;rounded=0;" parent="1" vertex="1">
          <mxGeometry x="56.5" y="40" width="620" height="30" as="geometry" />
        </mxCell>
        <mxCell id="bPhAiL6r6EbNg2Xtk8Mm-22" value="" style="endArrow=none;html=1;rounded=0;" parent="1" edge="1">
          <mxGeometry width="50" height="50" relative="1" as="geometry">
            <mxPoint x="186" y="209" as="sourcePoint" />
            <mxPoint x="266" y="209" as="targetPoint" />
          </mxGeometry>
        </mxCell>
        <mxCell id="bPhAiL6r6EbNg2Xtk8Mm-25" value="Login" style="text;html=1;strokeColor=none;fillColor=none;align=center;verticalAlign=middle;whiteSpace=wrap;rounded=0;" parent="1" vertex="1">
          <mxGeometry x="196" y="208" width="60" height="30" as="geometry" />
        </mxCell>
        <mxCell id="bPhAiL6r6EbNg2Xtk8Mm-27" value="" style="endArrow=classic;html=1;rounded=0;entryX=1;entryY=1;entryDx=0;entryDy=0;" parent="1" target="bPhAiL6r6EbNg2Xtk8Mm-14" edge="1">
          <mxGeometry width="50" height="50" relative="1" as="geometry">
            <mxPoint x="230" y="320" as="sourcePoint" />
            <mxPoint x="260" y="390" as="targetPoint" />
            <Array as="points">
              <mxPoint x="260" y="320" />
              <mxPoint x="260" y="390" />
            </Array>
          </mxGeometry>
        </mxCell>
        <mxCell id="bPhAiL6r6EbNg2Xtk8Mm-28" value="&lt;font style=&quot;font-size: 10px;&quot;&gt;2.1 validasi()&lt;/font&gt;" style="text;html=1;strokeColor=none;fillColor=none;align=left;verticalAlign=middle;whiteSpace=wrap;rounded=0;" parent="1" vertex="1">
          <mxGeometry x="270" y="340" width="138" height="30" as="geometry" />
        </mxCell>
        <mxCell id="bPhAiL6r6EbNg2Xtk8Mm-30" value="" style="rounded=0;whiteSpace=wrap;html=1;fillColor=#1CFFF0;" parent="1" vertex="1">
          <mxGeometry x="220" y="410" width="10" height="370" as="geometry" />
        </mxCell>
        <mxCell id="bPhAiL6r6EbNg2Xtk8Mm-29" value="" style="endArrow=none;dashed=1;html=1;rounded=0;" parent="1" edge="1">
          <mxGeometry width="50" height="50" relative="1" as="geometry">
            <mxPoint x="225.5" y="411" as="sourcePoint" />
            <mxPoint x="225.5" y="391" as="targetPoint" />
          </mxGeometry>
        </mxCell>
        <mxCell id="bPhAiL6r6EbNg2Xtk8Mm-32" value="" style="endArrow=classic;html=1;rounded=0;" parent="1" edge="1">
          <mxGeometry width="50" height="50" relative="1" as="geometry">
            <mxPoint x="230" y="410" as="sourcePoint" />
            <mxPoint x="350" y="410" as="targetPoint" />
          </mxGeometry>
        </mxCell>
        <mxCell id="bPhAiL6r6EbNg2Xtk8Mm-33" value="" style="endArrow=classic;html=1;entryX=-0.3;entryY=0.297;entryDx=0;entryDy=0;entryPerimeter=0;curved=1;dashed=1;" parent="1" edge="1">
          <mxGeometry width="50" height="50" relative="1" as="geometry">
            <mxPoint x="350" y="440" as="sourcePoint" />
            <mxPoint x="230" y="440.19000000000005" as="targetPoint" />
          </mxGeometry>
        </mxCell>
        <mxCell id="bPhAiL6r6EbNg2Xtk8Mm-37" value="&lt;font style=&quot;font-size: 10px;&quot;&gt;3. Cek kelengkapan()&lt;/font&gt;" style="text;html=1;strokeColor=none;fillColor=none;align=left;verticalAlign=middle;whiteSpace=wrap;rounded=0;" parent="1" vertex="1">
          <mxGeometry x="240" y="410" width="138" height="30" as="geometry" />
        </mxCell>
        <mxCell id="bPhAiL6r6EbNg2Xtk8Mm-38" value="" style="rounded=0;whiteSpace=wrap;html=1;fillColor=#1CFFF0;" parent="1" vertex="1">
          <mxGeometry x="350" y="410" width="10" height="110" as="geometry" />
        </mxCell>
        <mxCell id="bPhAiL6r6EbNg2Xtk8Mm-39" value="&lt;font style=&quot;font-size: 10px;&quot;&gt;7. retrun_query&lt;/font&gt;" style="text;html=1;strokeColor=none;fillColor=none;align=left;verticalAlign=middle;whiteSpace=wrap;rounded=0;" parent="1" vertex="1">
          <mxGeometry x="378" y="580" width="138" height="30" as="geometry" />
        </mxCell>
        <mxCell id="bPhAiL6r6EbNg2Xtk8Mm-42" value="" style="endArrow=classic;html=1;rounded=0;" parent="1" edge="1">
          <mxGeometry width="50" height="50" relative="1" as="geometry">
            <mxPoint x="220" y="480" as="sourcePoint" />
            <mxPoint x="350" y="480" as="targetPoint" />
          </mxGeometry>
        </mxCell>
        <mxCell id="bPhAiL6r6EbNg2Xtk8Mm-43" value="&lt;font style=&quot;font-size: 10px;&quot;&gt;9. masuk ke halaman utama&lt;/font&gt;" style="text;html=1;strokeColor=none;fillColor=none;align=left;verticalAlign=middle;whiteSpace=wrap;rounded=0;" parent="1" vertex="1">
          <mxGeometry x="364" y="690" width="138" height="30" as="geometry" />
        </mxCell>
        <mxCell id="bPhAiL6r6EbNg2Xtk8Mm-44" value="" style="endArrow=none;html=1;rounded=0;dashed=1;dashPattern=12 12;" parent="1" edge="1">
          <mxGeometry width="50" height="50" relative="1" as="geometry">
            <mxPoint x="355" y="560" as="sourcePoint" />
            <mxPoint x="354.58" y="230" as="targetPoint" />
          </mxGeometry>
        </mxCell>
        <mxCell id="bPhAiL6r6EbNg2Xtk8Mm-45" value="" style="endArrow=none;html=1;rounded=0;dashed=1;dashPattern=12 12;" parent="1" edge="1">
          <mxGeometry width="50" height="50" relative="1" as="geometry">
            <mxPoint x="61.079999999999984" y="265" as="sourcePoint" />
            <mxPoint x="61.079999999999984" y="225" as="targetPoint" />
          </mxGeometry>
        </mxCell>
        <mxCell id="bPhAiL6r6EbNg2Xtk8Mm-49" value="" style="endArrow=none;html=1;rounded=0;dashed=1;dashPattern=12 12;" parent="1" edge="1">
          <mxGeometry width="50" height="50" relative="1" as="geometry">
            <mxPoint x="224.57999999999998" y="270" as="sourcePoint" />
            <mxPoint x="224.57999999999998" y="230" as="targetPoint" />
          </mxGeometry>
        </mxCell>
        <mxCell id="bPhAiL6r6EbNg2Xtk8Mm-52" value="" style="ellipse;whiteSpace=wrap;html=1;" parent="1" vertex="1">
          <mxGeometry x="330" y="148" width="50" height="60" as="geometry" />
        </mxCell>
        <mxCell id="bPhAiL6r6EbNg2Xtk8Mm-57" value="" style="rounded=0;whiteSpace=wrap;html=1;fillColor=#1CFFF0;" parent="1" vertex="1">
          <mxGeometry x="350" y="560" width="10" height="220" as="geometry" />
        </mxCell>
        <mxCell id="bPhAiL6r6EbNg2Xtk8Mm-56" value="Controller" style="text;html=1;strokeColor=none;fillColor=none;align=center;verticalAlign=middle;whiteSpace=wrap;rounded=0;" parent="1" vertex="1">
          <mxGeometry x="325" y="207" width="60" height="30" as="geometry" />
        </mxCell>
        <mxCell id="bPhAiL6r6EbNg2Xtk8Mm-59" value="" style="ellipse;whiteSpace=wrap;html=1;" parent="1" vertex="1">
          <mxGeometry x="475" y="149" width="50" height="60" as="geometry" />
        </mxCell>
        <mxCell id="bPhAiL6r6EbNg2Xtk8Mm-60" value="" style="endArrow=none;html=1;rounded=0;" parent="1" edge="1">
          <mxGeometry width="50" height="50" relative="1" as="geometry">
            <mxPoint x="460" y="209" as="sourcePoint" />
            <mxPoint x="540" y="209" as="targetPoint" />
          </mxGeometry>
        </mxCell>
        <mxCell id="bPhAiL6r6EbNg2Xtk8Mm-61" value="Entry" style="text;html=1;strokeColor=none;fillColor=none;align=center;verticalAlign=middle;whiteSpace=wrap;rounded=0;" parent="1" vertex="1">
          <mxGeometry x="470" y="208" width="60" height="30" as="geometry" />
        </mxCell>
        <mxCell id="bPhAiL6r6EbNg2Xtk8Mm-63" value="" style="rounded=0;whiteSpace=wrap;html=1;fillColor=#1CFFF0;" parent="1" vertex="1">
          <mxGeometry x="495" y="457" width="10" height="143" as="geometry" />
        </mxCell>
        <mxCell id="bPhAiL6r6EbNg2Xtk8Mm-62" value="" style="endArrow=none;html=1;rounded=0;dashed=1;dashPattern=12 12;" parent="1" edge="1">
          <mxGeometry width="50" height="50" relative="1" as="geometry">
            <mxPoint x="500" y="920" as="sourcePoint" />
            <mxPoint x="499.58" y="238" as="targetPoint" />
          </mxGeometry>
        </mxCell>
        <mxCell id="bPhAiL6r6EbNg2Xtk8Mm-64" value="" style="endArrow=classic;html=1;rounded=0;" parent="1" edge="1">
          <mxGeometry width="50" height="50" relative="1" as="geometry">
            <mxPoint x="365" y="480" as="sourcePoint" />
            <mxPoint x="495" y="480" as="targetPoint" />
          </mxGeometry>
        </mxCell>
        <mxCell id="bPhAiL6r6EbNg2Xtk8Mm-65" value="&lt;span style=&quot;font-size: 10px;&quot;&gt;5.1 cek _username_dan password()&lt;/span&gt;" style="text;html=1;strokeColor=none;fillColor=none;align=left;verticalAlign=middle;whiteSpace=wrap;rounded=0;" parent="1" vertex="1">
          <mxGeometry x="367" y="490" width="138" height="30" as="geometry" />
        </mxCell>
        <mxCell id="bPhAiL6r6EbNg2Xtk8Mm-66" value="" style="endArrow=classic;html=1;entryX=-0.3;entryY=0.297;entryDx=0;entryDy=0;entryPerimeter=0;curved=1;dashed=1;" parent="1" edge="1">
          <mxGeometry width="50" height="50" relative="1" as="geometry">
            <mxPoint x="480" y="579.17" as="sourcePoint" />
            <mxPoint x="360" y="579.36" as="targetPoint" />
          </mxGeometry>
        </mxCell>
        <mxCell id="bPhAiL6r6EbNg2Xtk8Mm-67" value="&lt;font style=&quot;font-size: 10px;&quot;&gt;6. query_data()&lt;/font&gt;" style="text;html=1;strokeColor=none;fillColor=none;align=left;verticalAlign=middle;whiteSpace=wrap;rounded=0;" parent="1" vertex="1">
          <mxGeometry x="509" y="578" width="91" height="30" as="geometry" />
        </mxCell>
        <mxCell id="bPhAiL6r6EbNg2Xtk8Mm-68" value="" style="endArrow=none;html=1;rounded=0;dashed=1;dashPattern=12 12;" parent="1" edge="1">
          <mxGeometry width="50" height="50" relative="1" as="geometry">
            <mxPoint x="356" y="959" as="sourcePoint" />
            <mxPoint x="355.58" y="783" as="targetPoint" />
          </mxGeometry>
        </mxCell>
        <mxCell id="bPhAiL6r6EbNg2Xtk8Mm-69" value="" style="endArrow=none;html=1;rounded=0;dashed=1;dashPattern=12 12;" parent="1" edge="1">
          <mxGeometry width="50" height="50" relative="1" as="geometry">
            <mxPoint x="226" y="961" as="sourcePoint" />
            <mxPoint x="225.57999999999998" y="781" as="targetPoint" />
          </mxGeometry>
        </mxCell>
        <mxCell id="bPhAiL6r6EbNg2Xtk8Mm-70" value="" style="endArrow=none;html=1;rounded=0;dashed=1;dashPattern=12 12;" parent="1" edge="1">
          <mxGeometry width="50" height="50" relative="1" as="geometry">
            <mxPoint x="60" y="970" as="sourcePoint" />
            <mxPoint x="61.079999999999984" y="803" as="targetPoint" />
          </mxGeometry>
        </mxCell>
        <mxCell id="oEb_HTCXlrWKSXsh9NrZ-19" value="" style="swimlane;startSize=0;" vertex="1" parent="1">
          <mxGeometry x="135" y="607" width="580" height="213" as="geometry">
            <mxRectangle x="150" y="570" width="50" height="40" as="alternateBounds" />
          </mxGeometry>
        </mxCell>
        <mxCell id="oEb_HTCXlrWKSXsh9NrZ-20" value="Alt" style="text;html=1;align=center;verticalAlign=middle;resizable=0;points=[];autosize=1;strokeColor=none;fillColor=none;" vertex="1" parent="oEb_HTCXlrWKSXsh9NrZ-19">
          <mxGeometry x="-10" y="4" width="40" height="30" as="geometry" />
        </mxCell>
        <mxCell id="oEb_HTCXlrWKSXsh9NrZ-41" value="" style="endArrow=none;html=1;rounded=0;dashed=1;" edge="1" parent="oEb_HTCXlrWKSXsh9NrZ-19">
          <mxGeometry width="50" height="50" relative="1" as="geometry">
            <mxPoint x="5" y="112" as="sourcePoint" />
            <mxPoint x="579" y="112" as="targetPoint" />
          </mxGeometry>
        </mxCell>
        <mxCell id="oEb_HTCXlrWKSXsh9NrZ-22" value="" style="endArrow=classic;html=1;rounded=0;entryX=1;entryY=0.455;entryDx=0;entryDy=0;entryPerimeter=0;" edge="1" parent="1" target="bPhAiL6r6EbNg2Xtk8Mm-57">
          <mxGeometry width="50" height="50" relative="1" as="geometry">
            <mxPoint x="360" y="620" as="sourcePoint" />
            <mxPoint x="360" y="690" as="targetPoint" />
            <Array as="points">
              <mxPoint x="390" y="620" />
              <mxPoint x="390" y="660" />
            </Array>
          </mxGeometry>
        </mxCell>
        <mxCell id="oEb_HTCXlrWKSXsh9NrZ-23" value="&lt;font style=&quot;font-size: 10px;&quot;&gt;8. if_login_true()&lt;/font&gt;" style="text;html=1;strokeColor=none;fillColor=none;align=left;verticalAlign=middle;whiteSpace=wrap;rounded=0;" vertex="1" parent="1">
          <mxGeometry x="393.5" y="626" width="85" height="30" as="geometry" />
        </mxCell>
        <mxCell id="oEb_HTCXlrWKSXsh9NrZ-24" value="" style="endArrow=classic;html=1;rounded=0;" edge="1" parent="1">
          <mxGeometry width="50" height="50" relative="1" as="geometry">
            <mxPoint x="361" y="690" as="sourcePoint" />
            <mxPoint x="620" y="690" as="targetPoint" />
          </mxGeometry>
        </mxCell>
        <mxCell id="oEb_HTCXlrWKSXsh9NrZ-25" value="" style="endArrow=classic;html=1;rounded=0;" edge="1" parent="1">
          <mxGeometry width="50" height="50" relative="1" as="geometry">
            <mxPoint x="360" y="728" as="sourcePoint" />
            <mxPoint x="360" y="768" as="targetPoint" />
            <Array as="points">
              <mxPoint x="395" y="728" />
              <mxPoint x="395" y="768" />
            </Array>
          </mxGeometry>
        </mxCell>
        <mxCell id="oEb_HTCXlrWKSXsh9NrZ-26" value="&lt;font style=&quot;font-size: 10px;&quot;&gt;10. if_login_false()&lt;/font&gt;" style="text;html=1;strokeColor=none;fillColor=none;align=left;verticalAlign=middle;whiteSpace=wrap;rounded=0;" vertex="1" parent="1">
          <mxGeometry x="398.5" y="726" width="85" height="30" as="geometry" />
        </mxCell>
        <mxCell id="oEb_HTCXlrWKSXsh9NrZ-27" value="" style="endArrow=classic;html=1;entryX=-0.3;entryY=0.297;entryDx=0;entryDy=0;entryPerimeter=0;curved=1;dashed=1;" edge="1" parent="1">
          <mxGeometry width="50" height="50" relative="1" as="geometry">
            <mxPoint x="350" y="770" as="sourcePoint" />
            <mxPoint x="230" y="770.19" as="targetPoint" />
          </mxGeometry>
        </mxCell>
        <mxCell id="oEb_HTCXlrWKSXsh9NrZ-28" value="&lt;font style=&quot;font-size: 10px;&quot;&gt;11. login_gagal()&lt;/font&gt;" style="text;html=1;strokeColor=none;fillColor=none;align=left;verticalAlign=middle;whiteSpace=wrap;rounded=0;" vertex="1" parent="1">
          <mxGeometry x="251" y="780" width="85" height="30" as="geometry" />
        </mxCell>
        <mxCell id="oEb_HTCXlrWKSXsh9NrZ-30" value="" style="ellipse;whiteSpace=wrap;html=1;" vertex="1" parent="1">
          <mxGeometry x="608" y="148" width="50" height="60" as="geometry" />
        </mxCell>
        <mxCell id="oEb_HTCXlrWKSXsh9NrZ-31" value="" style="endArrow=none;html=1;rounded=0;" edge="1" parent="1">
          <mxGeometry width="50" height="50" relative="1" as="geometry">
            <mxPoint x="595" y="151" as="sourcePoint" />
            <mxPoint x="595" y="205" as="targetPoint" />
          </mxGeometry>
        </mxCell>
        <mxCell id="oEb_HTCXlrWKSXsh9NrZ-33" value="Halaman Utama" style="text;html=1;strokeColor=none;fillColor=none;align=center;verticalAlign=middle;whiteSpace=wrap;rounded=0;" vertex="1" parent="1">
          <mxGeometry x="586.5" y="206" width="93" height="30" as="geometry" />
        </mxCell>
        <mxCell id="oEb_HTCXlrWKSXsh9NrZ-34" value="" style="endArrow=none;html=1;rounded=0;dashed=1;dashPattern=12 12;" edge="1" parent="1" source="oEb_HTCXlrWKSXsh9NrZ-29">
          <mxGeometry width="50" height="50" relative="1" as="geometry">
            <mxPoint x="626.42" y="920" as="sourcePoint" />
            <mxPoint x="626" y="230" as="targetPoint" />
          </mxGeometry>
        </mxCell>
        <mxCell id="oEb_HTCXlrWKSXsh9NrZ-37" value="" style="endArrow=none;html=1;rounded=0;dashed=1;dashPattern=12 12;" edge="1" parent="1" target="oEb_HTCXlrWKSXsh9NrZ-29">
          <mxGeometry width="50" height="50" relative="1" as="geometry">
            <mxPoint x="626.42" y="920" as="sourcePoint" />
            <mxPoint x="626" y="238" as="targetPoint" />
          </mxGeometry>
        </mxCell>
        <mxCell id="oEb_HTCXlrWKSXsh9NrZ-29" value="" style="rounded=0;whiteSpace=wrap;html=1;fillColor=#1CFFF0;" vertex="1" parent="1">
          <mxGeometry x="620" y="670" width="10" height="35" as="geometry" />
        </mxCell>
        <mxCell id="oEb_HTCXlrWKSXsh9NrZ-44" value="" style="curved=1;endArrow=classic;html=1;rounded=0;entryX=0.5;entryY=0;entryDx=0;entryDy=0;" edge="1" parent="1" target="bPhAiL6r6EbNg2Xtk8Mm-52">
          <mxGeometry width="50" height="50" relative="1" as="geometry">
            <mxPoint x="375" y="197" as="sourcePoint" />
            <mxPoint x="425" y="147" as="targetPoint" />
            <Array as="points">
              <mxPoint x="380" y="177" />
              <mxPoint x="370" y="147" />
            </Array>
          </mxGeometry>
        </mxCell>
        <mxCell id="oEb_HTCXlrWKSXsh9NrZ-46" value="" style="endArrow=none;html=1;rounded=0;" edge="1" parent="1">
          <mxGeometry width="50" height="50" relative="1" as="geometry">
            <mxPoint x="608" y="180" as="sourcePoint" />
            <mxPoint x="594" y="180" as="targetPoint" />
          </mxGeometry>
        </mxCell>
        <mxCell id="oEb_HTCXlrWKSXsh9NrZ-48" value="&lt;font style=&quot;font-size: 10px;&quot;&gt;4. return_validasi&lt;/font&gt;" style="text;html=1;strokeColor=none;fillColor=none;align=left;verticalAlign=middle;whiteSpace=wrap;rounded=0;" vertex="1" parent="1">
          <mxGeometry x="251" y="447" width="138" height="30" as="geometry" />
        </mxCell>
        <mxCell id="oEb_HTCXlrWKSXsh9NrZ-49" value="&lt;font style=&quot;font-size: 10px;&quot;&gt;5. cek_login&lt;/font&gt;" style="text;html=1;strokeColor=none;fillColor=none;align=left;verticalAlign=middle;whiteSpace=wrap;rounded=0;" vertex="1" parent="1">
          <mxGeometry x="255" y="481" width="138" height="30" as="geometry" />
        </mxCell>
        <mxCell id="oEb_HTCXlrWKSXsh9NrZ-50" value="" style="endArrow=classic;html=1;rounded=0;entryX=1;entryY=0.455;entryDx=0;entryDy=0;entryPerimeter=0;" edge="1" parent="1">
          <mxGeometry width="50" height="50" relative="1" as="geometry">
            <mxPoint x="505" y="543" as="sourcePoint" />
            <mxPoint x="505" y="583" as="targetPoint" />
            <Array as="points">
              <mxPoint x="535" y="543" />
              <mxPoint x="535" y="583" />
            </Array>
          </mxGeometry>
        </mxCell>
      </root>
    </mxGraphModel>
  </diagram>
</mxfile>
